<?xml version="1.0" encoding="UTF-8"?><svg xmlns="http://www.w3.org/2000/svg" viewBox="0 0 467.2 148.37"><defs><style>.d{fill:none;opacity:.3;}.e{fill:#fff;}.f{fill:#932238;}.g{fill:#363636;}</style></defs><g id="a"/><g id="b"><g id="c"><g><rect class="d" width="467.2" height="148.37"/><g><g><path class="g" d="M179.6,46.33c0-8.7,6.9-15,15.5-15s15.5,6.2,15.5,15-6.9,15-15.5,15c-8.6-.1-15.5-6.3-15.5-15Zm24,0c0-5-3.8-8.7-8.4-8.7s-8.3,3.7-8.3,8.7,3.8,8.7,8.3,8.7c4.5,0,8.4-3.7,8.4-8.7Z"/><path class="g" d="M246.1,31.43v.6h11.1v5.8h-11.1v22.7h-7.2v-22.7h-14.7v22.7h-7.3v-28.2c0-7.7,4.1-13.8,12.7-13.8,2.8,0,5.7,.5,7.2,1.3v6c-1.5-.7-3.7-1.2-5.8-1.2-3.8,0-6.9,2.6-6.9,7.3h14.8v-.3c0-8.1,4.3-13.8,13.1-13.8,2.8,0,5.9,.5,7.4,1.3v6c-1.5-.7-3.9-1.2-5.9-1.2-4.1,.2-7.4,2.5-7.4,7.5Z"/><path class="g" d="M286.7,45.63c0,.6-.1,1.3-.1,1.8h-20.8c.6,5.2,4.1,8.1,9.2,8.1,3,0,7.1-1,10-2.2v5.6c-2.4,1.3-6.8,2.4-10.8,2.4-9.7,0-15.2-6.6-15.2-15.2,0-9.2,6.2-14.7,14.4-14.7,8.6-.1,13.4,5.9,13.3,14.2Zm-20.5-2.8h13.7c-.5-3.6-2.8-5.8-6.5-5.8-3.6,0-6.3,2.2-7.2,5.8Z"/><path class="g" d="M310.5,31.43v7.8c-.6-.2-2-.3-2.9-.3-1.8,0-4.8,.4-7.4,2.5v19.3h-7.3v-28.6h7.2v4.9c2.1-2.9,5.5-5.6,9.4-5.6,.4-.1,.7-.1,1,0Z"/><path class="g" d="M333,54.43v6c-1.6,.5-3.9,.8-5.9,.8-8.9,0-11.7-6.5-11.7-13.1V27.93l6.5-4.1h.7v8.2h9.6v5.8h-9.6v10.4c0,4,1.9,6.8,5.9,6.8,1.6,0,3.1-.2,4.5-.6Z"/><path class="g" d="M359.2,32.03h7.3v28.6h-7.3v-2.9c-2.2,2.1-5.6,3.5-9.2,3.5-7.6,0-14-5.8-14-15s6.4-15,14-15c3.6,0,7.1,1.4,9.2,3.5v-2.7Zm0,20v-11.4c-2.1-2-5-3.2-7.7-3.2-4.5,0-8.3,3.4-8.4,8.9,.1,5.5,3.9,8.9,8.4,8.9,2.7,0,5.6-1.2,7.7-3.2Z"/><path class="g" d="M188.9,98.63v.6h11.1v5.8h-11.1v22.7h-7.2v-28.8c0-8.1,4.3-13.8,13.2-13.8,2.7,0,5.9,.5,7.4,1.3v6c-1.5-.7-4-1.2-6-1.2-4.1,.1-7.4,2.4-7.4,7.4Z"/><path class="g" d="M201.7,113.53c0-8.7,6.9-15,15.5-15s15.5,6.2,15.5,15-6.9,15-15.5,15c-8.7-.1-15.5-6.3-15.5-15Zm23.9,0c0-5-3.8-8.7-8.4-8.7s-8.3,3.7-8.3,8.7,3.8,8.7,8.3,8.7c4.6,0,8.4-3.7,8.4-8.7Z"/><path class="g" d="M256.5,98.63v7.8c-.6-.2-2-.3-2.9-.3-1.8,0-4.8,.4-7.4,2.5v19.3h-7.3v-28.6h7.2v4.9c2.1-2.9,5.5-5.6,9.4-5.6,.4-.1,.8-.1,1,0Z"/><path class="g" d="M304.9,109.83v18h-7.2v-17.2c0-3.5-1.9-5.8-4.8-5.8-2.2,0-4.4,1.5-6,3.8,.1,.4,.1,.8,.1,1.2v18h-7.2v-17.2c0-3.5-1.9-5.8-4.8-5.8-2.2,0-4.4,1.5-5.9,3.8v19.3h-7.2v-28.6h7.2v3.5c2-2.5,4.8-4.1,7.8-4.1,4,0,7.2,1.8,8.8,5.3,2-3.1,5.8-5.3,9.1-5.3,5.9-.2,10.1,4,10.1,11.1Z"/><path class="g" d="M334.1,99.23h7.3v28.6h-7.3v-2.9c-2.2,2.1-5.6,3.5-9.2,3.5-7.6,0-14-5.8-14-15s6.4-15,14-15c3.6,0,7.1,1.4,9.2,3.5v-2.7Zm0,20v-11.4c-2.1-2-5-3.2-7.7-3.2-4.5,0-8.3,3.4-8.4,8.9,.1,5.5,3.9,8.9,8.4,8.9,2.8,0,5.7-1.2,7.7-3.2Z"/><path class="g" d="M366.9,121.63v6c-1.6,.5-3.9,.8-5.9,.8-8.9,0-11.7-6.5-11.7-13.1v-20.2l6.5-4.1h.7v8.2h9.6v5.8h-9.6v10.4c0,4,1.9,6.8,5.9,6.8,1.5,0,3.1-.2,4.5-.6Z"/><path class="g" d="M371.3,89.63c0-2.5,2-4.3,4.5-4.3s4.5,1.8,4.5,4.3-2,4.3-4.5,4.3-4.5-1.9-4.5-4.3Zm.9,38.2v-28.6h7.2v28.6h-7.2Z"/><path class="g" d="M407.3,99.23h7.8v.5l-14.2,28.1h-2.6l-14.2-28.1v-.5h7.7l7.8,16.9,7.7-16.9Z"/><path class="g" d="M439.9,99.23h7.3v28.6h-7.3v-2.9c-2.2,2.1-5.6,3.5-9.2,3.5-7.6,0-14-5.8-14-15s6.4-15,14-15c3.6,0,7.1,1.4,9.2,3.5v-2.7Zm0,20v-11.4c-2.1-2-5-3.2-7.7-3.2-4.5,0-8.3,3.4-8.4,8.9,.1,5.5,3.9,8.9,8.4,8.9,2.7,0,5.6-1.2,7.7-3.2Z"/></g><g><path class="f" d="M89.3,43.63h27.6c-9.9-12.8-25.4-21.1-42.8-21.1s-33.1,8.3-43,21.3c9.7,1,19,5.7,27,13.7,9.1-9,20.1-13.9,31.2-13.9Z"/><path class="f" d="M63.1,107.33c-1.3,1.3-3,2.1-4.9,2.1h-.1c-1.8,0-3.5-.7-4.8-2l-1.1-1.1c-7.5-7.5-16.2-11.5-25.2-11.5h-3.8c7.5,20.8,27.4,35.7,50.8,35.7s43.3-14.9,50.8-35.7h-35.6c-9.3,0-18.3,4.3-26.1,12.5Z"/><path class="f" d="M63.1,64.53c-1.3,1.3-3,2.1-4.9,2.1h-.1c-1.8,0-3.5-.7-4.8-2l-1.1-1.1c-7.5-7.5-16.2-11.5-25.2-11.5h-1.1c-3.8,7.4-5.9,15.7-5.9,24.5,0,3.4,.3,6.7,.9,9.9h6.1c11.2,0,22,4.8,31.1,13.9,9-9,20-13.9,31.1-13.9h37.9c.6-3.2,.9-6.5,.9-9.9,0-8.8-2.1-17.1-5.9-24.5h-32.9c-9.3,0-18.3,4.3-26.1,12.5Z"/><path class="e" d="M58.2,100.33c-9.1-9.1-19.9-13.9-31.1-13.9h-6.1c.5,2.9,1.3,5.7,2.3,8.4h3.8c8.9,0,17.7,4,25.2,11.5l1.1,1.1c1.3,1.3,3,2,4.8,2h.1c1.9,0,3.6-.8,4.9-2.1,7.7-8.2,16.8-12.5,26.1-12.5h35.6c1-2.7,1.7-5.5,2.3-8.4h-37.9c-11.1,0-22.1,4.9-31.1,13.9Z"/><path class="e" d="M89.3,43.63c-11.1,0-22.1,4.9-31.1,13.9-8-8-17.3-12.7-27-13.7-2,2.6-3.7,5.3-5.2,8.2h1.1c8.9,0,17.7,4,25.2,11.5l1.1,1.1c1.3,1.3,3,2,4.8,2h.1c1.9,0,3.6-.8,4.9-2.1,7.7-8.2,16.8-12.5,26.1-12.5h32.9c-1.5-3-3.3-5.8-5.3-8.4h-27.6Z"/></g></g></g></g></g></svg>